<!DOCTYPE svg PUBLIC "-//W3C//DTD SVG 1.1//EN" "http://www.w3.org/Graphics/SVG/1.1/DTD/svg11.dtd"><svg aria-hidden="true" xmlns="http://www.w3.org/2000/svg" xmlns:xlink="http://www.w3.org/1999/xlink"><symbol id="basket" viewBox="0 0 512 512" xml:space="preserve" xmlns="http://www.w3.org/2000/svg">
<style type="text/css">.ast0{fill:#000000;}</style>
<g>
	<path class="ast0" d="M486.998,140.232c-8.924-12.176-22.722-19.878-37.785-21.078l-311.616-24.68l-5.665-32.094   c-5.179-29.305-28.497-51.998-57.932-56.352l-5.662-0.845L34.65,0.185c-9.385-1.378-18.118,5.09-19.51,14.475   c-1.395,9.393,5.086,18.127,14.471,19.514v-0.008l39.357,5.834l0.009,0.026c14.788,2.164,26.526,13.586,29.131,28.324   l53.338,302.302c5.005,28.375,29.647,49.047,58.461,49.056h219.192c9.49,0,17.176-7.694,17.176-17.172   c0-9.486-7.686-17.18-17.176-17.18H209.906c-12.133,0.009-22.536-8.725-24.642-20.672l-7.461-42.299h244.342   c24.189,0,45.174-16.691,50.606-40.262l22.967-99.523C499.118,167.887,495.93,152.424,486.998,140.232z"/>
	<path class="ast0" d="M223.012,438.122c-20.402,0-36.935,16.554-36.935,36.948c0,20.394,16.533,36.931,36.935,36.931   c20.401,0,36.944-16.537,36.944-36.931C259.955,454.676,243.413,438.122,223.012,438.122z"/>
	<path class="ast0" d="M387.124,438.122c-20.406,0-36.935,16.554-36.935,36.948c0,20.394,16.529,36.931,36.935,36.931   c20.402,0,36.944-16.537,36.944-36.931C424.068,454.676,407.526,438.122,387.124,438.122z"/>
</g>
</symbol><symbol viewBox="0 0 32 32" id="facebook" xmlns="http://www.w3.org/2000/svg">
<title>facebook</title>
<path d="M30.996 16.091c-0.001-8.281-6.714-14.994-14.996-14.994s-14.996 6.714-14.996 14.996c0 7.455 5.44 13.639 12.566 14.8l0.086 0.012v-10.478h-3.808v-4.336h3.808v-3.302c-0.019-0.167-0.029-0.361-0.029-0.557 0-2.923 2.37-5.293 5.293-5.293 0.141 0 0.281 0.006 0.42 0.016l-0.018-0.001c1.199 0.017 2.359 0.123 3.491 0.312l-0.134-0.019v3.69h-1.892c-0.086-0.012-0.185-0.019-0.285-0.019-1.197 0-2.168 0.97-2.168 2.168 0 0.068 0.003 0.135 0.009 0.202l-0.001-0.009v2.812h4.159l-0.665 4.336h-3.494v10.478c7.213-1.174 12.653-7.359 12.654-14.814v-0z"/>
</symbol><symbol viewBox="0 0 24 24" id="inst" xmlns="http://www.w3.org/2000/svg"><path fill-rule="evenodd" clip-rule="evenodd" d="M11.9962 0.0078125C8.73824 0.0078125 8.32971 0.021622 7.05019 0.080003C5.77333 0.138241 4.90129 0.341051 4.13824 0.637622C3.34938 0.944146 2.68038 1.35434 2.01343 2.02124C1.34652 2.68819 0.936333 3.35719 0.629809 4.14605C0.333238 4.9091 0.130429 5.78115 0.0721905 7.058C0.0138095 8.33753 0 8.74605 0 12.0041C0 15.262 0.0138095 15.6705 0.0721905 16.9501C0.130429 18.2269 0.333238 19.099 0.629809 19.862C0.936333 20.6509 1.34652 21.3199 2.01343 21.9868C2.68038 22.6537 3.34938 23.0639 4.13824 23.3705C4.90129 23.667 5.77333 23.8698 7.05019 23.9281C8.32971 23.9864 8.73824 24.0002 11.9962 24.0002C15.2542 24.0002 15.6627 23.9864 16.9422 23.9281C18.2191 23.8698 19.0911 23.667 19.8542 23.3705C20.643 23.0639 21.312 22.6537 21.979 21.9868C22.6459 21.3199 23.0561 20.6509 23.3627 19.862C23.6592 19.099 23.862 18.2269 23.9202 16.9501C23.9786 15.6705 23.9924 15.262 23.9924 12.0041C23.9924 8.74605 23.9786 8.33753 23.9202 7.058C23.862 5.78115 23.6592 4.9091 23.3627 4.14605C23.0561 3.35719 22.6459 2.68819 21.979 2.02124C21.312 1.35434 20.643 0.944146 19.8542 0.637622C19.0911 0.341051 18.2191 0.138241 16.9422 0.080003C15.6627 0.021622 15.2542 0.0078125 11.9962 0.0078125ZM7.99748 12.0041C7.99748 14.2125 9.78776 16.0028 11.9962 16.0028C14.2047 16.0028 15.995 14.2125 15.995 12.0041C15.995 9.79557 14.2047 8.00529 11.9962 8.00529C9.78776 8.00529 7.99748 9.79557 7.99748 12.0041ZM5.836 12.0041C5.836 8.60181 8.594 5.84381 11.9962 5.84381C15.3984 5.84381 18.1564 8.60181 18.1564 12.0041C18.1564 15.4062 15.3984 18.1642 11.9962 18.1642C8.594 18.1642 5.836 15.4062 5.836 12.0041ZM18.3998 7.03996C19.1949 7.03996 19.8394 6.39548 19.8394 5.60043C19.8394 4.80538 19.1949 4.16086 18.3998 4.16086C17.6048 4.16086 16.9603 4.80538 16.9603 5.60043C16.9603 6.39548 17.6048 7.03996 18.3998 7.03996Z"/></symbol><symbol viewBox="0 0 20 20" id="phone" xmlns="http://www.w3.org/2000/svg">
<path d="M4.02222 8.65556C5.62222 11.8 8.2 14.3667 11.3444 15.9778L13.7889 13.5333C14.0889 13.2333 14.5333 13.1333 14.9222 13.2667C16.1667 13.6778 17.5111 13.9 18.8889 13.9C19.5 13.9 20 14.4 20 15.0111V18.8889C20 19.5 19.5 20 18.8889 20C8.45556 20 0 11.5444 0 1.11111C0 0.5 0.5 0 1.11111 0H5C5.61111 0 6.11111 0.5 6.11111 1.11111C6.11111 2.5 6.33333 3.83333 6.74444 5.07778C6.86667 5.46667 6.77778 5.9 6.46667 6.21111L4.02222 8.65556Z"/>
</symbol><symbol viewBox="0 0 20 20" id="whatsapp" xmlns="http://www.w3.org/2000/svg">
    
    <title>whatsapp [#128]</title>
    <desc>Created with Sketch.</desc>
    <defs>

</defs>
    <g id="ePage-1" stroke-width="1" fill-rule="evenodd">
        <g id="eDribbble-Light-Preview" transform="translate(-300.000000, -7599.000000)">
            <g id="eicons" transform="translate(56.000000, 160.000000)">
                <path d="M259.821,7453.12124 C259.58,7453.80344 258.622,7454.36761 257.858,7454.53266 C257.335,7454.64369 256.653,7454.73172 254.355,7453.77943 C251.774,7452.71011 248.19,7448.90097 248.19,7446.36621 C248.19,7445.07582 248.934,7443.57337 250.235,7443.57337 C250.861,7443.57337 250.999,7443.58538 251.205,7444.07952 C251.446,7444.6617 252.034,7446.09613 252.104,7446.24317 C252.393,7446.84635 251.81,7447.19946 251.387,7447.72462 C251.252,7447.88266 251.099,7448.05372 251.27,7448.3478 C251.44,7448.63589 252.028,7449.59418 252.892,7450.36341 C254.008,7451.35771 254.913,7451.6748 255.237,7451.80984 C255.478,7451.90987 255.766,7451.88687 255.942,7451.69881 C256.165,7451.45774 256.442,7451.05762 256.724,7450.6635 C256.923,7450.38141 257.176,7450.3464 257.441,7450.44643 C257.62,7450.50845 259.895,7451.56477 259.991,7451.73382 C260.062,7451.85686 260.062,7452.43903 259.821,7453.12124 M254.002,7439 L253.997,7439 L253.997,7439 C248.484,7439 244,7443.48535 244,7449 C244,7451.18666 244.705,7453.21526 245.904,7454.86076 L244.658,7458.57687 L248.501,7457.3485 C250.082,7458.39482 251.969,7459 254.002,7459 C259.515,7459 264,7454.51465 264,7449 C264,7443.48535 259.515,7439 254.002,7439" id="ewhatsapp-[#128]">

</path>
            </g>
        </g>
    </g>
</symbol></svg>